<?xml version="1.0" standalone="no"?>
<svg version="1.0" xmlns="http://www.w3.org/2000/svg"
 width="2048" height="2048" viewBox="0 0 2048.000000 2048.000000"
 preserveAspectRatio="xMidYMid meet">
<g transform="translate(0.000000,2048.000000) scale(0.100000,-0.100000)"
fill="#FF006E" stroke="none">
<path d="M13790 17290 c-399 -57 -761 -158 -1175 -330 -493 -205 -1024 -531
-1203 -739 -141 -164 -205 -324 -205 -521 -2 -346 186 -772 388 -879 43 -23
62 -26 140 -26 82 0 95 3 150 33 33 18 114 71 180 118 155 112 205 137 275
142 52 4 60 2 92 -27 84 -73 136 -301 153 -671 16 -329 -47 -833 -205 -1645
-117 -605 -162 -1058 -125 -1276 21 -129 43 -187 91 -246 47 -57 84 -79 154
-94 126 -26 341 49 615 214 449 272 797 610 905 880 58 146 65 186 64 387 -1
330 -40 455 -322 1040 -156 324 -217 486 -274 720 -93 390 -89 824 11 1044 36
79 76 125 143 162 l53 29 223 -3 223 -2 72 33 c40 19 89 48 110 66 90 79 202
249 273 413 175 401 218 828 100 983 -84 110 -186 166 -364 200 -106 21 -381
18 -542 -5z"/>
<path d="M6305 17284 c-63 -10 -182 -48 -235 -74 -84 -43 -145 -102 -182 -178
-32 -64 -33 -72 -36 -207 -4 -147 3 -214 68 -625 61 -391 71 -469 85 -680 35
-520 4 -910 -116 -1465 -40 -186 -134 -513 -189 -660 -224 -594 -288 -798
-316 -1005 -24 -182 -1 -332 74 -475 83 -158 300 -325 627 -481 255 -121 406
-153 500 -103 97 51 160 150 186 289 17 91 16 394 -2 613 -16 206 -16 687 0
802 30 211 81 305 188 350 119 50 321 -31 467 -185 113 -120 156 -233 156
-407 0 -164 -30 -320 -148 -768 -84 -315 -105 -449 -106 -650 0 -131 4 -176
22 -247 53 -214 136 -325 350 -468 228 -152 495 -260 703 -285 118 -14 231 38
290 135 15 25 37 83 50 130 31 119 23 335 -20 575 -17 94 -36 202 -41 240 -6
39 -17 108 -25 155 -16 95 -48 370 -66 560 -16 181 -14 651 5 855 45 476 131
898 273 1330 36 110 69 205 73 210 4 6 18 42 30 80 12 39 69 187 125 330 147
371 165 440 165 624 0 85 -6 140 -20 197 -79 308 -411 647 -823 838 -167 78
-211 90 -322 91 -95 0 -102 -2 -145 -30 -127 -86 -180 -284 -180 -671 0 -113
4 -258 10 -322 22 -256 31 -427 37 -652 10 -396 -21 -587 -110 -677 -52 -54
-91 -67 -181 -60 -158 13 -342 108 -444 230 -157 186 -169 378 -61 952 11 61
38 198 59 305 123 625 145 797 121 984 -17 143 -51 218 -135 302 -133 133
-313 195 -581 200 -82 1 -163 0 -180 -2z"/>
<path d="M4745 16924 c-395 -43 -818 -268 -1188 -632 -709 -697 -1161 -1640
-1297 -2708 -52 -413 -49 -913 9 -1320 25 -175 43 -250 86 -370 89 -250 228
-342 473 -314 178 20 657 206 884 343 61 36 143 113 177 164 42 63 71 161 71
237 0 105 -33 206 -131 406 -51 102 -103 214 -116 250 -109 285 -78 462 98
567 97 57 169 71 619 119 250 26 429 75 607 165 292 148 469 341 606 664 142
334 181 932 91 1385 -60 301 -142 519 -266 703 -101 152 -260 271 -423 317
-70 20 -223 32 -300 24z m-274 -1127 c151 -63 221 -282 174 -549 -30 -171
-102 -309 -229 -434 -141 -138 -291 -220 -488 -264 -154 -35 -270 -24 -332 30
-68 60 -82 187 -41 382 83 394 392 778 677 843 74 17 189 13 239 -8z"/>
<path d="M15695 16801 c-191 -25 -347 -111 -525 -290 -252 -253 -525 -710
-675 -1126 -96 -266 -170 -582 -195 -834 -15 -156 -13 -480 5 -602 40 -272
120 -501 251 -718 335 -552 1063 -915 2047 -1021 166 -18 541 -24 659 -11 154
17 319 53 426 94 320 122 467 325 539 747 25 150 23 545 -5 720 -60 380 -152
695 -324 1105 -156 374 -403 778 -665 1092 -442 528 -933 833 -1363 848 -63 2
-142 0 -175 -4z m520 -1230 c111 -31 199 -85 301 -186 199 -196 329 -475 371
-796 44 -335 -56 -577 -282 -685 -121 -58 -247 -69 -392 -34 -316 76 -543 339
-618 720 -24 118 -16 391 13 502 44 162 104 277 189 363 119 120 260 159 418
116z"/>
<path d="M10245 15109 c-426 -53 -831 -383 -1080 -879 -311 -619 -430 -1427
-329 -2230 23 -181 59 -341 123 -546 65 -206 100 -295 187 -467 74 -148 128
-230 235 -358 164 -197 321 -311 548 -396 268 -101 616 -83 909 46 407 180
746 564 946 1074 123 312 192 651 217 1057 31 505 -48 1071 -207 1497 -156
418 -437 808 -716 995 -260 175 -537 244 -833 207z m268 -1176 c190 -75 335
-315 399 -658 18 -95 17 -460 0 -540 -46 -207 -113 -345 -217 -451 -137 -138
-292 -175 -465 -112 -211 78 -358 345 -392 713 -14 142 1 378 31 515 82 369
273 571 526 556 39 -2 91 -13 118 -23z"/>
<path d="M15005 12145 c-339 -57 -555 -227 -631 -495 -21 -76 -25 -333 -6
-435 6 -33 20 -114 32 -180 12 -66 27 -154 35 -195 54 -301 68 -385 91 -535
14 -93 30 -206 35 -250 5 -44 14 -107 19 -140 13 -80 46 -443 61 -680 17 -261
18 -1058 1 -1250 -30 -341 -69 -634 -142 -1085 -51 -308 -60 -454 -36 -528 36
-106 104 -118 223 -39 175 117 548 544 700 802 196 333 228 532 164 992 -51
363 -56 430 -43 551 15 138 44 249 85 325 113 212 465 467 643 467 42 0 59 -5
75 -21 56 -56 -12 -328 -234 -929 -74 -201 -97 -273 -126 -387 -42 -165 -19
-262 62 -263 65 0 128 53 292 246 658 774 1316 1934 1535 2704 106 374 109
644 8 803 -115 180 -448 317 -773 316 -271 0 -456 -91 -540 -264 -44 -91 -58
-168 -59 -320 0 -121 6 -167 39 -340 43 -224 51 -380 26 -470 -53 -188 -201
-345 -408 -433 -154 -66 -323 -97 -396 -73 -96 32 -129 93 -135 251 -4 121 7
247 58 615 82 602 79 823 -17 1007 -102 196 -340 283 -638 233z"/>
<path d="M3610 11583 c-426 -69 -811 -337 -915 -638 -26 -75 -27 -88 -22 -200
6 -150 54 -344 144 -580 142 -371 471 -991 769 -1450 171 -264 218 -332 334
-490 337 -460 577 -739 656 -765 42 -14 78 5 95 48 29 72 -15 265 -122 545
-170 443 -287 768 -335 928 -110 373 -113 539 -8 539 48 0 84 -21 132 -76 91
-103 120 -170 411 -960 94 -253 147 -376 206 -475 100 -168 188 -249 281 -257
48 -4 54 -2 92 32 47 43 75 104 108 235 25 96 76 346 89 431 19 127 60 301 81
346 40 84 107 99 175 37 107 -96 159 -331 145 -653 -10 -226 -48 -459 -130
-800 -115 -477 -125 -526 -132 -650 -15 -246 58 -450 244 -684 93 -116 311
-334 407 -406 128 -97 176 -120 243 -120 49 0 58 3 87 34 36 39 61 116 70 216
3 36 10 351 15 700 10 618 24 1033 55 1545 8 138 19 336 25 440 6 105 15 262
20 350 25 438 30 591 30 960 1 504 -12 621 -87 799 -96 230 -320 440 -628 591
-277 135 -495 170 -624 100 -135 -74 -202 -214 -256 -540 -80 -473 -99 -553
-149 -633 -43 -68 -114 -90 -190 -58 -39 16 -122 108 -170 187 -59 99 -157
311 -291 629 -106 254 -152 346 -234 469 -87 132 -225 233 -366 266 -55 13
-196 18 -255 8z"/>
<path d="M13575 11320 c-235 -57 -490 -229 -696 -470 -224 -261 -328 -432
-502 -820 -115 -258 -265 -675 -334 -930 -134 -501 -212 -923 -264 -1440 -39
-398 -37 -1079 7 -1418 19 -154 61 -396 85 -500 67 -282 197 -577 323 -738
176 -223 406 -314 622 -245 323 104 828 593 1103 1068 172 298 313 677 385
1033 34 172 70 396 87 555 16 144 16 537 1 605 -24 104 -43 158 -71 203 -53
82 -153 108 -241 62 -79 -41 -209 -188 -335 -380 -231 -350 -378 -514 -529
-590 -60 -31 -78 -35 -143 -35 -89 0 -131 17 -188 76 -118 121 -179 367 -178
719 0 278 21 440 88 690 100 367 308 646 500 670 73 10 124 -1 240 -48 90 -37
109 -41 185 -42 73 0 92 4 135 26 111 59 199 156 265 294 136 281 177 610 124
980 -43 301 -190 558 -367 645 -60 29 -78 33 -165 36 -53 2 -115 -1 -137 -6z"/>
<path d="M11585 10266 c-82 -16 -208 -57 -355 -116 -147 -59 -471 -165 -593
-195 -243 -59 -526 -91 -862 -99 -250 -6 -299 -14 -376 -60 -67 -40 -116 -103
-152 -196 -46 -117 -50 -155 -44 -399 5 -225 17 -325 63 -525 68 -300 162
-473 292 -540 56 -29 145 -21 275 24 212 73 286 53 338 -96 27 -76 45 -179 70
-389 25 -217 36 -721 20 -920 -6 -77 -15 -205 -21 -285 -15 -204 -64 -653
-110 -1000 -104 -783 -124 -1007 -124 -1360 0 -241 2 -289 22 -390 64 -338
169 -471 398 -503 273 -38 790 189 1082 476 317 310 395 646 257 1101 -52 172
-215 596 -303 786 -23 50 -126 323 -165 440 -210 618 -322 1307 -303 1865 11
339 65 482 209 553 26 13 97 32 157 43 148 26 209 50 272 109 120 109 181 261
278 690 38 168 53 312 54 500 1 208 -7 266 -49 350 -61 119 -173 165 -330 136z"/>
<path d="M7861 10177 c-80 -25 -166 -150 -234 -338 -62 -171 -187 -656 -272
-1054 -12 -60 -33 -153 -45 -205 -12 -52 -26 -117 -30 -145 -5 -27 -30 -149
-55 -270 -97 -469 -192 -1043 -239 -1455 -46 -403 -59 -614 -53 -875 8 -312
33 -483 94 -641 116 -298 612 -698 819 -660 50 10 95 57 124 131 23 56 24 73
24 275 1 147 -5 258 -17 350 -60 472 -72 624 -59 767 11 126 38 187 98 220 50
29 92 28 177 -2 100 -35 169 -79 266 -171 202 -191 231 -381 145 -959 -73
-492 -77 -526 -78 -720 -1 -222 8 -268 81 -415 42 -83 62 -109 163 -211 122
-123 226 -198 379 -274 238 -118 372 -121 469 -11 63 72 91 162 118 373 36
283 17 948 -42 1433 -43 363 -155 1102 -204 1355 -73 375 -170 821 -240 1105
-22 91 -57 230 -76 308 -38 152 -59 229 -173 617 -214 734 -383 1136 -544
1295 -68 67 -200 138 -317 170 -82 22 -220 26 -279 7z m396 -1753 c60 -38 156
-267 224 -534 65 -261 68 -272 80 -385 26 -232 -22 -325 -166 -325 -156 0
-348 98 -408 208 -32 58 -57 158 -57 228 0 177 95 586 172 739 47 91 89 110
155 69z"/>
</g>
</svg>
