<?xml version="1.0" standalone="no"?>
<!DOCTYPE svg PUBLIC "-//W3C//DTD SVG 20010904//EN"
 "http://www.w3.org/TR/2001/REC-SVG-20010904/DTD/svg10.dtd">
<svg version="1.0" xmlns="http://www.w3.org/2000/svg"
 width="1024.000000pt" height="1024.000000pt" viewBox="0 0 1024.000000 1024.000000"
 preserveAspectRatio="xMidYMid meet">
<metadata>
Created by potrace 1.16, written by Peter Selinger 2001-2019
</metadata>
<g transform="translate(0.000000,1024.000000) scale(0.100000,-0.100000)"
fill="#FF006E" stroke="none">
<path d="M3385 8049 c-308 -39 -664 -188 -905 -379 -105 -83 -277 -258 -356
-362 -255 -339 -379 -699 -391 -1134 -11 -376 61 -692 238 -1046 79 -159 133
-248 152 -248 13 0 86 36 101 50 4 4 -13 40 -39 80 -66 101 -167 314 -214 452
-85 250 -117 463 -108 723 17 465 182 865 491 1192 258 273 562 443 937 525
92 20 132 22 344 22 212 0 252 -2 345 -22 352 -77 652 -240 926 -504 49 -48
119 -121 154 -163 l65 -75 35 42 c243 296 500 491 805 611 116 46 305 93 429
108 124 14 412 7 526 -15 480 -88 900 -365 1163 -766 120 -184 226 -450 269
-675 30 -158 32 -495 4 -644 -37 -200 -103 -416 -167 -542 -16 -32 -16 -41 -4
-85 7 -27 16 -70 20 -96 3 -27 9 -48 13 -48 21 0 114 206 178 395 87 257 119
467 111 742 -5 207 -19 304 -71 488 -107 377 -343 734 -651 982 -263 212 -608
354 -955 394 -164 18 -456 7 -602 -25 -387 -83 -723 -271 -1018 -569 l-84 -85
-106 100 c-351 336 -738 531 -1147 578 -105 12 -390 11 -488 -1z"/>
<path d="M3430 7794 c-155 -29 -212 -42 -313 -75 -551 -179 -980 -672 -1100
-1264 -19 -95 -22 -141 -22 -335 0 -263 16 -363 91 -591 45 -135 131 -324 148
-324 14 0 44 95 45 138 1 21 -12 68 -27 105 -39 91 -87 257 -109 372 -24 131
-25 479 -1 596 122 586 539 1045 1093 1202 412 117 854 48 1222 -190 219 -143
429 -365 567 -601 l51 -89 48 6 c26 3 51 7 56 10 5 3 32 46 61 95 243 415 613
693 1055 792 126 29 394 36 530 15 576 -88 1033 -474 1214 -1025 59 -179 75
-285 75 -496 0 -230 -21 -361 -90 -560 -64 -184 -64 -168 -7 -185 26 -8 53
-16 60 -18 24 -7 116 273 149 453 26 143 26 471 0 610 -26 144 -90 332 -161
470 -232 459 -625 760 -1132 867 -94 20 -137 23 -328 23 -193 0 -233 -3 -323
-23 -128 -29 -311 -91 -406 -139 -287 -144 -576 -415 -741 -697 -8 -15 -18 -5
-62 63 -214 327 -564 601 -920 721 -175 58 -268 72 -493 76 -113 1 -216 0
-230 -2z"/>
<path d="M6394 7101 c-13 -6 -29 -32 -43 -73 -53 -147 -157 -264 -294 -332
-42 -21 -80 -42 -83 -48 -9 -14 -8 -78 0 -106 7 -20 14 -22 71 -22 57 0 63 -2
68 -22 2 -13 5 -174 6 -358 1 -186 6 -352 12 -373 13 -51 60 -101 107 -115 55
-17 163 -15 234 3 186 49 331 190 287 280 -22 45 -42 52 -78 26 -31 -22 -88
-30 -110 -16 -6 3 -19 21 -28 38 -15 28 -18 72 -21 317 l-4 285 108 18 c59 9
111 22 116 29 4 7 8 48 8 91 0 58 -4 79 -14 83 -8 3 -59 -1 -113 -9 -54 -8
-99 -13 -101 -12 -1 1 -6 74 -10 161 l-7 159 -45 2 c-25 1 -54 -2 -66 -6z"/>
<path d="M7265 6915 c-248 -54 -418 -215 -482 -455 -22 -82 -24 -299 -4 -380
66 -265 296 -363 644 -274 215 55 358 195 426 419 20 67 24 102 25 215 1 118
-2 145 -23 209 -47 142 -138 230 -276 266 -72 18 -226 19 -310 0z m127 -192
c9 -9 25 -38 35 -67 26 -74 26 -461 0 -555 -23 -83 -49 -119 -93 -127 -104
-19 -147 91 -147 376 0 184 16 278 58 342 37 55 103 69 147 31z"/>
<path d="M3955 6874 c-33 -14 -121 -48 -195 -75 -74 -28 -141 -55 -147 -61 -7
-6 -13 -25 -13 -44 0 -25 9 -42 39 -72 22 -22 44 -52 48 -68 14 -51 10 -897
-5 -1009 -14 -103 -36 -170 -65 -194 -22 -18 -22 -64 1 -84 26 -23 45 -22 320
22 264 42 271 45 272 108 0 17 -5 35 -10 38 -39 24 -66 148 -80 367 -18 270 4
368 88 398 38 13 46 13 70 0 53 -30 54 -38 45 -370 -4 -168 -7 -343 -6 -389 5
-190 81 -325 216 -387 60 -28 68 -29 207 -28 131 0 153 3 230 28 77 26 161 67
200 99 50 40 63 98 31 138 -18 23 -24 24 -118 21 -92 -3 -102 -2 -152 25 -136
71 -180 239 -181 693 0 246 -9 332 -38 388 -41 80 -146 120 -269 102 -84 -11
-169 -53 -255 -124 -37 -31 -70 -56 -74 -56 -4 0 -5 117 -2 260 5 295 4 300
-60 300 -20 -1 -64 -12 -97 -26z"/>
<path d="M2995 6793 c-179 -24 -553 -104 -628 -135 -55 -22 -58 -90 -6 -120
64 -37 64 -38 64 -608 0 -525 -5 -601 -41 -711 -8 -26 -24 -55 -34 -64 -29
-26 -27 -90 3 -109 20 -14 43 -12 232 19 116 18 247 39 293 45 64 10 86 17 97
33 25 36 18 71 -20 105 -45 42 -65 109 -72 245 l-6 107 40 0 c68 0 213 29 282
57 192 76 323 222 376 418 22 82 31 265 16 350 -34 192 -153 323 -328 360 -63
14 -197 17 -268 8z m35 -231 c70 -35 100 -134 100 -329 0 -178 -32 -307 -95
-381 -34 -40 -93 -72 -135 -72 l-30 0 0 389 0 389 28 10 c42 16 94 14 132 -6z"/>
<path d="M5430 6649 c-287 -37 -492 -210 -555 -469 -38 -157 -28 -352 25 -475
27 -63 102 -140 166 -170 195 -92 547 -23 720 142 135 130 207 360 184 588
-31 292 -219 425 -540 384z m55 -213 c38 -39 56 -116 62 -276 8 -241 -29 -420
-96 -454 -101 -53 -151 22 -173 258 -19 207 12 405 73 465 40 40 98 43 134 7z"/>
<path d="M7160 5579 c-113 -45 -208 -86 -213 -93 -4 -6 -6 -29 -5 -51 2 -32 8
-42 29 -52 53 -26 54 -36 54 -578 0 -447 -2 -507 -18 -565 -10 -35 -27 -74
-37 -85 -24 -26 -26 -78 -4 -100 11 -10 26 -14 47 -10 120 20 284 45 352 55
105 15 142 27 160 53 22 31 18 65 -10 98 -13 16 -29 46 -35 67 -20 72 -32 233
-28 394 3 141 6 168 24 203 26 52 82 81 127 68 56 -16 58 -29 54 -333 -4 -281
-8 -314 -49 -396 -18 -37 -19 -45 -7 -70 10 -20 23 -30 43 -32 15 -2 132 11
260 29 201 29 234 36 254 56 30 30 29 78 -2 98 -13 9 -32 35 -41 57 -21 53
-34 241 -35 484 0 105 -5 215 -10 245 -21 110 -92 169 -216 177 -120 8 -232
-36 -356 -140 l-48 -40 0 252 c0 154 -4 259 -10 271 -18 33 -65 22 -280 -62z"/>
<path d="M5575 5309 c-26 -7 -38 -25 -82 -118 -67 -140 -136 -217 -255 -283
-46 -26 -89 -52 -95 -58 -18 -15 -17 -105 2 -120 9 -7 36 -11 70 -8 l55 3 0
-358 c0 -235 4 -374 11 -403 30 -118 145 -159 334 -119 128 27 230 92 293 187
27 41 25 69 -6 109 l-19 23 -51 -22 c-63 -27 -97 -21 -119 21 -21 42 -34 223
-31 437 l3 174 40 8 c22 5 68 13 103 18 87 12 92 18 92 105 0 98 -2 100 -131
80 -56 -8 -104 -15 -106 -15 -1 0 -4 78 -5 173 l-3 172 -35 2 c-19 1 -48 -2
-65 -8z"/>
<path d="M6475 5115 c-343 -71 -555 -331 -555 -681 0 -123 12 -188 50 -269 72
-151 223 -226 423 -212 250 18 475 171 533 364 16 52 11 64 -38 89 -29 15 -30
15 -98 -49 -133 -126 -298 -144 -379 -41 -70 89 -81 383 -19 526 24 57 50 78
95 78 40 0 47 -13 61 -124 9 -68 14 -83 41 -110 29 -29 36 -31 99 -31 142 1
242 108 242 257 0 89 -52 161 -140 194 -62 22 -226 27 -315 9z"/>
<path d="M3482 5020 c-90 -19 -226 -101 -296 -179 l-19 -20 -49 44 c-62 55
-108 68 -218 63 -69 -4 -97 -11 -150 -36 -62 -29 -165 -108 -183 -138 -14 -24
-24 -15 -30 27 -11 85 -54 97 -170 49 -40 -16 -130 -53 -202 -82 -107 -44
-131 -58 -139 -79 -13 -37 -1 -73 28 -89 14 -7 33 -31 43 -54 16 -37 18 -71
16 -356 -4 -443 -20 -596 -73 -663 -25 -32 -26 -79 -1 -101 18 -17 29 -16 218
13 109 18 231 37 272 43 114 17 144 62 98 146 -33 62 -54 174 -67 352 -13 189
-13 495 1 543 26 95 145 130 186 54 15 -27 19 -65 21 -232 6 -335 -20 -627
-63 -725 -18 -40 -8 -86 21 -97 14 -5 517 61 548 73 28 11 49 95 26 109 -21
13 -52 89 -65 158 -38 200 -48 671 -17 761 20 58 55 88 106 89 90 3 104 -70
85 -443 -8 -146 -14 -337 -14 -425 1 -175 17 -255 73 -358 37 -69 129 -151
199 -177 81 -31 234 -38 335 -16 93 21 188 65 216 101 46 58 18 125 -53 125
-47 0 -126 42 -169 90 -45 50 -87 138 -109 230 -27 109 -38 268 -45 670 l-7
385 -28 47 c-42 71 -99 101 -201 104 -45 2 -100 -1 -124 -6z"/>
<path d="M4820 4845 c-85 -13 -156 -24 -156 -24 -1 -1 -4 -14 -7 -31 l-6 -29
-43 19 c-189 83 -454 -32 -556 -242 -62 -127 -76 -201 -76 -408 -1 -150 2
-195 17 -240 57 -179 155 -248 340 -238 102 5 192 43 266 113 l49 46 7 -31
c13 -58 54 -62 261 -24 186 34 244 67 244 141 0 20 -10 36 -34 55 -52 42 -58
87 -65 528 l-6 385 -40 1 c-22 1 -110 -9 -195 -21z m-217 -262 c32 -37 40
-106 34 -326 -3 -120 -10 -229 -17 -251 -17 -56 -60 -96 -104 -96 -68 0 -93
53 -109 227 -8 92 -8 150 1 227 13 121 33 176 74 211 36 30 97 34 121 8z"/>
<path d="M7285 3926 l-90 -11 -125 -129 c-295 -303 -686 -628 -1185 -985 -303
-216 -735 -501 -760 -501 -20 0 -363 218 -555 353 -172 121 -402 290 -521 384
-116 90 -119 92 -242 75 l-48 -7 73 -61 c306 -255 944 -704 1239 -873 l53 -30
45 27 c227 130 782 507 1022 693 403 311 592 468 819 681 167 156 370 369 370
388 0 5 -1 9 -2 9 -2 -1 -43 -7 -93 -13z"/>
<path d="M6839 3871 c-52 -6 -61 -11 -125 -71 -222 -208 -579 -495 -954 -765
-165 -119 -599 -411 -625 -422 -17 -6 -35 5 -250 145 -155 101 -476 329 -581
412 l-51 41 -49 -19 c-27 -10 -57 -22 -68 -26 -27 -9 -16 -20 163 -155 230
-173 467 -336 764 -525 l59 -37 76 47 c127 79 409 267 532 354 63 46 135 97
159 114 64 45 377 286 517 398 214 171 564 488 564 510 0 9 -44 8 -131 -1z"/>
</g>
</svg>
